<svg xmlns="http://www.w3.org/2000/svg" xmlns:xlink="http://www.w3.org/1999/xlink" xmlns:inkscape="http://www.inkscape.org/namespaces/inkscape" version="1.1" width="400" height="400" viewBox="0 0 400 400">
<defs>
<clipPath id="clip_1">
<path transform="matrix(1,0,0,-1,0,400)" d="M0 400H400V0H0Z"/>
</clipPath>
</defs>
<g inkscape:groupmode="layer" inkscape:label="Layer 1">
<g clip-path="url(#clip_1)">
<path transform="matrix(1,0,0,-1,82.9671,236.9698)" d="M0 0V-8.907C0-13.146 .027-16.133 .141-18.01 .228-19.887 .397-21.225 .598-22.02 .909-23.386 1.763-24.327 3.156-24.811 4.554-25.323 7.851-25.551 13.118-25.551 20.142-25.551 25.491-24.468 29.05-22.276 32.635-20.088 34.425-16.845 34.425-12.493 34.425-8.167 32.575-4.979 28.875-2.933 25.181-.882 19.348 .169 11.383 .169H4.978C4.407 .169 3.303 .141 1.676 .087 .968 .054 .424 .027 0 0M0 2.018C.854 1.991 1.649 1.991 2.361 1.964 3.101 1.937 3.727 1.937 4.326 1.937H5.033 11.067C17.498 1.937 22.303 2.9 25.518 4.777 28.734 6.687 30.355 9.533 30.355 13.341 30.355 16.927 28.761 19.544 25.578 21.28 22.417 22.988 17.498 23.843 10.838 23.843 9.473 23.843 6.916 23.783 3.128 23.641 1.763 23.587 .74 23.527 0 23.527ZM-12.204-27.254V-26.628C-10.099-26.231-8.679-25.181-7.911-23.413-7.139-21.71-6.742-17.553-6.742-11.067V18.178C-6.742 20.371-7.111 21.965-7.797 22.988-8.477 23.984-9.647 24.61-11.296 24.838V25.491H-.343C1.567 25.491 4.353 25.491 8.08 25.551 11.78 25.605 14.538 25.605 16.361 25.605 23.445 25.605 28.848 24.61 32.575 22.564 36.303 20.485 38.18 17.498 38.18 13.63 38.18 10.273 36.787 7.596 34.028 5.577 31.297 3.586 27.112 2.247 21.568 1.567 28.565 .968 33.8-.484 37.298-2.818 40.829-5.12 42.565-8.308 42.565-12.346 42.565-17.324 40.313-21.084 35.905-23.614 31.492-26.144 24.925-27.428 16.214-27.428 14.223-27.428 10.865-27.396 6.116-27.287 1.393-27.227-2.389-27.173-5.207-27.173-6.257-27.173-7.34-27.2-8.505-27.2-9.674-27.227-10.899-27.227-12.204-27.254" fill="#145633"/>
<path transform="matrix(1,0,0,-1,164.9707,239.7496)" d="M0 0C-.398 .027-.827 .054-1.339 .054H-3.499C-10.583 .054-16.073-1.023-19.947-3.243-23.756-5.436-25.72-8.619-25.72-12.661-25.72-15.877-24.67-18.38-22.591-20.311-20.54-22.194-17.809-23.157-14.37-23.157-9.903-23.157-6.372-21.737-3.842-18.891-1.252-16.046 0-12.09 0-7.084V-2.677ZM11.41-24.555H11.181C8.281-24.441 6.203-24.381 4.891-24.381H2.704C2.018-23.157 1.42-21.938 .941-20.627 .457-19.348 .054-17.983-.229-16.557-1.823-19.49-4.01-21.71-6.742-23.19-9.506-24.724-12.776-25.464-16.503-25.464-21.596-25.464-25.633-24.267-28.62-21.879-31.607-19.463-33.087-16.187-33.087-12.123-33.087-7.596-30.443-4.152-25.181-1.79-19.914 .539-12.204 1.736-2.019 1.736L0 1.763C-.141 7.171-1.279 11.181-3.444 13.711-5.604 16.328-8.934 17.58-13.429 17.58-17.553 17.58-20.91 16.644-23.445 14.767-26.003 12.857-27.57 10.131-28.223 6.573H-28.653L-31.155 14.881C-28.478 16.328-25.633 17.384-22.591 18.124-19.517 18.804-16.274 19.147-12.83 19.147-9.446 19.147-6.431 18.69-3.782 17.868-1.165 16.987 .968 15.735 2.53 14.114 3.869 12.716 4.81 11.094 5.376 9.163 5.92 7.253 6.203 4.124 6.203-.229V-6.089C6.203-12.803 6.572-17.324 7.34-19.686 8.107-22.047 9.445-23.5 11.41-24.011Z" fill="#145633"/>
<path transform="matrix(1,0,0,-1,182.8918,279.8423)" d="M0 0 3.27 8.874H3.781C4.151 7.77 4.75 6.97 5.517 6.458 6.29 5.947 7.253 5.691 8.477 5.691 10.468 5.691 12.231 6.6 13.825 8.477 15.42 10.354 16.214 12.433 16.214 14.794 16.214 15.931 16.018 17.183 15.621 18.548 15.219 19.941 14.68 21.421 13.94 22.934L3.014 45.209C.941 49.475-.767 52.549-2.106 54.427-3.444 56.304-4.75 57.414-5.974 57.756V58.322C-4.636 58.241-3.357 58.154-2.133 58.099-.909 58.039 .256 58.012 1.311 58.012 2.475 58.012 4.581 58.099 7.596 58.295 7.966 58.322 8.249 58.322 8.395 58.322V57.756C7.367 57.555 6.6 57.245 6.088 56.788 5.55 56.363 5.294 55.819 5.294 55.139 5.294 54.595 5.49 53.828 5.887 52.778 6.257 51.809 6.883 50.498 7.737 48.909L21.508 23.015 31.525 44.638C32.635 47.114 33.402 48.964 33.8 50.275 34.224 51.554 34.452 52.636 34.452 53.518 34.452 54.709 34.082 55.624 33.343 56.304 32.602 56.989 31.438 57.501 29.871 57.756V58.322H30.127C33.114 58.126 35.334 58.012 36.787 58.012 37.81 58.012 38.865 58.039 39.975 58.099 41.052 58.154 42.418 58.241 44.04 58.322V57.756C42.619 57.185 40.998 55.678 39.262 53.344 37.527 50.982 35.704 47.968 33.854 44.214L19.147 14.397C16.584 9.244 14 5.49 11.41 3.188 8.82 .854 5.974-.343 2.873-.343 2.416-.343 1.991-.31 1.534-.229 1.083-.201 .571-.114 0 0" fill="#145633"/>
<path transform="matrix(1,0,0,-1,262.6448,239.7496)" d="M0 0C-.398 .027-.827 .054-1.339 .054H-3.499C-10.61 .054-16.073-1.023-19.942-3.243-23.756-5.436-25.72-8.619-25.72-12.661-25.72-15.877-24.67-18.38-22.619-20.311-20.54-22.194-17.809-23.157-14.397-23.157-9.903-23.157-6.404-21.737-3.842-18.891-1.279-16.046 0-12.09 0-7.084V-2.677ZM11.41-24.555H11.181C8.281-24.441 6.175-24.381 4.864-24.381H2.704C2.018-23.157 1.42-21.938 .941-20.627 .457-19.348 .027-17.983-.229-16.557-1.823-19.49-4.01-21.71-6.742-23.19-9.5-24.724-12.776-25.464-16.503-25.464-21.596-25.464-25.633-24.267-28.62-21.879-31.607-19.463-33.087-16.187-33.087-12.123-33.087-7.596-30.47-4.152-25.181-1.79-19.914 .539-12.177 1.736-2.046 1.736L0 1.763C-.141 7.171-1.279 11.181-3.444 13.711-5.632 16.328-8.934 17.58-13.429 17.58-17.553 17.58-20.91 16.644-23.446 14.767-26.003 12.857-27.57 10.131-28.223 6.573H-28.653L-31.155 14.881C-28.478 16.328-25.633 17.384-22.591 18.124-19.517 18.804-16.274 19.147-12.83 19.147-9.446 19.147-6.431 18.69-3.782 17.868-1.165 16.987 .941 15.735 2.53 14.114 3.869 12.716 4.81 11.094 5.348 9.163 5.92 7.253 6.203 4.124 6.203-.229V-6.089C6.203-12.803 6.572-17.324 7.34-19.686 8.107-22.047 9.445-23.5 11.41-24.011Z" fill="#145633"/>
<path transform="matrix(1,0,0,-1,276.273,264.39363)" d="M0 0V.653C1.964 1.251 3.303 2.448 4.037 4.239 4.75 6.034 5.147 9.984 5.147 16.073V18.864 30.355C5.147 34.055 4.81 36.39 4.184 37.358 3.558 38.321 2.416 38.865 .767 39.007L.713 39.572C2.503 39.975 4.238 40.487 5.887 40.938 7.508 41.482 9.103 42.021 10.67 42.565V30.355C11.78 34.768 13.771 38.098 16.731 40.345 19.686 42.592 23.472 43.702 28.108 43.702 31.21 43.702 34.028 43.104 36.471 41.88 38.947 40.655 40.884 38.892 42.222 36.7 43.185 35.138 43.844 33.228 44.214 30.867 44.611 28.538 44.812 25.067 44.812 20.485V17.215C44.812 10.24 45.182 5.887 45.889 4.124 46.602 2.389 47.968 1.224 49.959 .653V0C48.392 .114 46.912 .141 45.552 .201 44.154 .256 42.848 .256 41.651 .256 40.829 .256 39.719 .256 38.408 .201 37.015 .141 35.421 .114 33.544 0V.653C35.481 1.224 36.814 2.389 37.554 4.124 38.294 5.887 38.664 9.647 38.664 15.42V18.864 20.485C38.664 27.711 37.668 33.005 35.677 36.33 33.712 39.687 30.557 41.341 26.258 41.341 21.34 41.341 17.613 39.572 15.077 36.074 12.547 32.548 11.268 27.341 11.268 20.485V16.503C11.268 9.984 11.638 5.86 12.318 4.124 13.031 2.416 14.37 1.251 16.328 .653V0C14.848 .114 13.455 .141 12.09 .201 10.724 .256 9.391 .256 8.08 .256 7.171 .256 6.034 .256 4.723 .201 3.384 .141 1.79 .114 0 0" fill="#145633"/>
<path transform="matrix(1,0,0,-1,79.4927,296.401)" d="M0 0C.457 0 .941 0 1.507-.054 2.046-.054 2.361-.087 2.416-.087 8.765-.087 12.917 .424 14.821 1.366 16.813 2.307 17.781 3.956 17.781 6.29 17.781 8.395 16.813 9.93 14.881 10.953 12.944 11.976 9.93 12.46 5.833 12.46 4.891 12.46 3.983 12.433 3.014 12.433 2.078 12.433 1.083 12.433 0 12.406ZM19.207-16.731C18.891-15.991 18.548-15.164 18.238-14.424 17.95-13.63 17.64-12.83 17.357-12.008L16.073-8.504C15.137-5.746 13.825-3.841 12.122-2.759 10.414-1.681 7.394-1.11 3.101-1.11 2.704-1.11 2.16-1.11 1.48-1.164 .794-1.197 .283-1.251 0-1.251V-6.203C0-10.327 .201-12.971 .626-14.168 1.083-15.365 1.904-16.133 3.188-16.443L3.156-16.845C2.133-16.786 1.197-16.758 .31-16.731-.572-16.699-1.366-16.699-2.16-16.699-2.96-16.699-3.754-16.699-4.582-16.731-5.403-16.758-6.29-16.786-7.111-16.845V-16.443C-5.92-16.133-5.093-15.447-4.669-14.337-4.239-13.26-4.01-10.496-4.01-6.203V8.08C-4.01 10.131-4.184 11.464-4.554 12.09-4.924 12.661-5.604 13.058-6.573 13.227V13.597C-5.604 13.57-4.609 13.57-3.559 13.543H.571 5.463C8.847 13.543 11.268 13.515 12.775 13.401 14.283 13.26 15.507 13.118 16.475 12.83 18.407 12.318 19.941 11.464 20.969 10.327 22.02 9.244 22.531 7.879 22.531 6.371 22.531 4.151 21.535 2.361 19.517 1.11 17.498-.201 14.653-.854 11.04-.969 13.455-1.251 15.447-1.904 17.041-2.9 18.575-3.929 19.8-5.321 20.572-7.111 20.969-7.993 21.481-9.244 22.047-10.811 23.331-14.141 24.609-15.991 25.888-16.274V-16.731C25.262-16.731 24.522-16.731 23.668-16.699H22.02 20.681C20.202-16.699 19.718-16.699 19.207-16.731" fill="#a7a9ac"/>
<path transform="matrix(1,0,0,-1,111.1954,296.7907)" d="M0 0H15.393C15.278 2.361 14.593 4.266 13.287 5.664 12.008 7.084 10.272 7.764 8.221 7.764 6.061 7.764 4.326 7.111 2.9 5.746 1.453 4.407 .511 2.476 0 0M19.718-6.29 20.425-7.199C19.49-10.414 17.983-12.857 15.958-14.511 13.912-16.133 11.35-16.987 8.249-16.987 4.494-16.987 1.393-15.763-.969-13.342-3.384-10.926-4.582-7.824-4.582-4.07-4.582-.343-3.412 2.704-1.023 5.093 1.338 7.454 4.38 8.618 8.167 8.618 11.464 8.618 14.168 7.737 16.274 6.061 18.38 4.326 19.604 1.964 19.947-.969H-.169C-.202-1.453-.202-1.877-.229-2.334-.229-2.759-.256-3.27-.256-3.869-.256-7.454 .626-10.3 2.361-12.433 4.124-14.539 6.458-15.589 9.358-15.589 11.861-15.589 14-14.822 15.763-13.227 17.525-11.638 18.837-9.332 19.718-6.29" fill="#a7a9ac"/>
<path transform="matrix(1,0,0,-1,153.6752,299.0954)" d="M0 0C-.229 .027-.485 .027-.767 .027H-2.019C-6.089 .027-9.217-.599-11.437-1.85-13.63-3.129-14.74-4.951-14.74-7.286-14.74-9.076-14.168-10.556-12.972-11.638-11.78-12.748-10.186-13.287-8.281-13.287-5.691-13.287-3.64-12.46-2.193-10.839-.74-9.217 0-6.943 0-4.07V-1.534ZM6.545-14.081H6.404C4.75-14.027 3.526-14 2.786-14H1.534C1.164-13.287 .794-12.547 .539-11.834 .256-11.094 0-10.327-.141-9.5-1.05-11.181-2.307-12.433-3.869-13.314-5.463-14.196-7.313-14.593-9.473-14.593-12.378-14.593-14.707-13.913-16.416-12.52-18.124-11.154-18.979-9.304-18.979-6.943-18.979-4.353-17.471-2.389-14.451-1.05-11.437 .315-6.997 .968-1.165 .968L0 .996C-.054 4.124-.74 6.404-1.992 7.879-3.243 9.331-5.147 10.071-7.71 10.071-10.071 10.071-11.976 9.56-13.429 8.45-14.881 7.367-15.817 5.833-16.16 3.754H-16.416L-17.841 8.537C-16.361 9.358-14.707 9.984-12.944 10.354-11.209 10.784-9.332 10.98-7.367 10.98-5.403 10.98-3.673 10.724-2.193 10.213-.653 9.729 .571 8.988 1.453 8.08 2.22 7.313 2.758 6.371 3.074 5.261 3.417 4.151 3.558 2.361 3.558-.141V-3.499C3.558-7.34 3.754-9.957 4.211-11.268 4.636-12.661 5.408-13.488 6.545-13.771Z" fill="#a7a9ac"/>
<path transform="matrix(1,0,0,-1,161.3459,313.23829)" d="M0 0V.397C1.197 .713 1.964 1.507 2.416 2.617 2.845 3.754 3.074 6.23 3.074 10.044V11.665 27.112C3.074 29.246 2.9 30.584 2.562 31.155 2.192 31.721 1.48 32.037 .484 32.064V32.461C1.453 32.575 2.475 32.749 3.526 33.032 4.554 33.315 5.664 33.685 6.883 34.142 6.774 33.147 6.741 32.01 6.714 30.671 6.66 29.36 6.66 27.766 6.66 25.888V10.24C6.66 6.257 6.883 3.7 7.313 2.617 7.737 1.507 8.564 .74 9.761 .397L9.728 0C8.934 .054 8.134 .087 7.285 .114 6.458 .141 5.631 .141 4.75 .141 3.7 .141 2.845 .141 2.105 .114 1.393 .087 .68 .054 0 0" fill="#a7a9ac"/>
<path transform="matrix(1,0,0,-1,188.3657,282.8158)" d="M0 0C.827-.027 1.708-.027 2.677-.054H7.111 25.518L27.88-6.627 27.569-6.742C25.948-4.696 24.098-3.243 22.047-2.389 20.001-1.567 16.698-1.11 12.177-1.11H9.331C8.934-1.11 8.504-1.11 8.08-1.137 7.623-1.137 7.111-1.137 6.6-1.164V-13.597C7.03-13.597 7.541-13.597 8.221-13.63 8.874-13.63 9.304-13.657 9.473-13.657H14.653C17.128-13.657 18.946-13.342 20.17-12.716 21.394-12.09 22.303-11.04 22.901-9.587H23.157V-18.891H22.901C22.335-17.411 21.454-16.361 20.17-15.703 18.891-15.05 17.068-14.74 14.653-14.74H9.048 7.797C7.737-14.74 7.623-14.767 7.367-14.794 7.084-14.822 6.855-14.822 6.627-14.822L6.6-21.454C6.6-23.783 6.627-25.295 6.687-26.003 6.741-26.688 6.828-27.227 6.942-27.543 7.171-28.136 7.655-28.593 8.336-28.848 9.048-29.077 10.583-29.191 12.971-29.191 17.613-29.191 21.084-28.761 23.413-27.825 25.774-26.857 27.738-25.323 29.36-23.103L29.615-23.13 27.254-30.274H4.467 2.9 1.311C.74-30.274 .141-30.274-.539-30.301V-29.958C.68-29.73 1.507-29.05 1.937-27.94 2.388-26.803 2.59-24.098 2.59-19.773V-4.211C2.59-3.014 2.388-2.106 1.964-1.48 1.567-.854 .909-.484 0-.37Z" fill="#a7a9ac"/>
<path transform="matrix(1,0,0,-1,219.7184,311.5423)" d="M0 0 1.594 5.261H1.823C2.046 3.303 3.014 1.763 4.75 .571 6.485-.626 8.651-1.224 11.268-1.224 13.488-1.224 15.278-.68 16.617 .424 17.95 1.507 18.663 2.96 18.663 4.695 18.663 6.175 18.238 7.253 17.357 7.938 16.502 8.618 14.397 9.163 11.121 9.614 7.797 10.044 5.376 10.784 3.869 11.861 2.361 12.917 1.649 14.424 1.649 16.247 1.649 18.32 2.644 20.028 4.668 21.367 6.714 22.732 9.331 23.413 12.487 23.413 14.223 23.413 15.877 23.271 17.411 23.015 18.946 22.76 20.311 22.363 21.535 21.905L20.257 17.384H19.941C19.462 19.12 18.635 20.398 17.438 21.28 16.214 22.134 14.707 22.591 12.83 22.591 10.757 22.591 9.048 22.047 7.71 20.997 6.404 19.941 5.746 18.635 5.746 17.068 5.746 15.817 6.203 14.821 7.138 14.223 8.08 13.63 10.158 13.086 13.341 12.748 16.987 12.346 19.517 11.638 20.91 10.697 22.335 9.729 23.075 8.281 23.075 6.404 23.075 3.781 21.932 1.736 19.718 .141 17.498-1.453 14.511-2.22 10.67-2.22 8.706-2.22 6.855-2.019 5.065-1.681 3.303-1.311 1.621-.74 0 0" fill="#a7a9ac"/>
<path transform="matrix(1,0,0,-1,245.5722,291.2598)" d="M0 0 .283 .68C1.763 1.137 3.047 1.937 4.151 3.074 5.207 4.211 6.257 6.001 7.313 8.396H7.683C7.623 7.508 7.568 6.486 7.508 5.321 7.481 4.184 7.454 2.933 7.427 1.507H12.46V1.164L11.976 0H7.34L7.481-10.839C7.481-15.077 7.764-17.868 8.249-19.174 8.733-20.513 9.674-21.313 11.013-21.623V-21.938C10.071-21.906 8.961-21.906 7.71-21.879 6.513-21.851 5.773-21.851 5.55-21.851 4.891-21.421 4.467-20.855 4.211-20.17 3.956-19.463 3.814-18.064 3.814-15.959V-13.374-13.086C3.869-12.547 3.869-12.09 3.869-11.666L4.037 0Z" fill="#a7a9ac"/>
<path transform="matrix(1,0,0,-1,279.7184,299.0954)" d="M0 0C-.229 .027-.485 .027-.767 .027H-2.019C-6.089 .027-9.217-.599-11.437-1.85-13.63-3.129-14.74-4.951-14.74-7.286-14.74-9.076-14.168-10.556-12.972-11.638-11.78-12.748-10.186-13.287-8.249-13.287-5.691-13.287-3.64-12.46-2.193-10.839-.74-9.217 0-6.943 0-4.07V-1.534ZM6.545-14.081H6.404C4.75-14.027 3.558-14 2.786-14H1.534C1.164-13.287 .794-12.547 .539-11.834 .256-11.094 .027-10.327-.141-9.5-1.05-11.181-2.307-12.433-3.869-13.314-5.463-14.196-7.313-14.593-9.473-14.593-12.378-14.593-14.707-13.913-16.416-12.52-18.124-11.154-18.979-9.304-18.979-6.943-18.979-4.353-17.471-2.389-14.424-1.05-11.437 .315-6.997 .968-1.165 .968L0 .996C-.054 4.124-.74 6.404-1.992 7.879-3.243 9.331-5.147 10.071-7.71 10.071-10.071 10.071-11.976 9.56-13.429 8.45-14.881 7.367-15.79 5.833-16.16 3.754H-16.416L-17.841 8.537C-16.361 9.358-14.707 9.984-12.944 10.354-11.209 10.784-9.332 10.98-7.367 10.98-5.403 10.98-3.667 10.724-2.193 10.213-.653 9.729 .571 8.988 1.453 8.08 2.22 7.313 2.758 6.371 3.074 5.261 3.417 4.151 3.558 2.361 3.558-.141V-3.499C3.558-7.34 3.754-9.957 4.211-11.268 4.636-12.661 5.408-13.488 6.545-13.771Z" fill="#a7a9ac"/>
<path transform="matrix(1,0,0,-1,287.6226,291.2598)" d="M0 0 .283 .68C1.763 1.137 3.074 1.937 4.151 3.074 5.207 4.211 6.257 6.001 7.313 8.396H7.683C7.623 7.508 7.568 6.486 7.508 5.321 7.481 4.184 7.454 2.933 7.427 1.507H12.46V1.164L11.976 0H7.34L7.481-10.839C7.481-15.077 7.764-17.868 8.249-19.174 8.765-20.513 9.674-21.313 11.013-21.623V-21.938C10.071-21.906 8.961-21.906 7.71-21.879 6.513-21.851 5.773-21.851 5.55-21.851 4.891-21.421 4.467-20.855 4.211-20.17 3.956-19.463 3.814-18.064 3.814-15.959V-13.374-13.086C3.869-12.547 3.869-12.09 3.869-11.666L4.037 0Z" fill="#a7a9ac"/>
<path transform="matrix(1,0,0,-1,307.4609,296.7907)" d="M0 0H15.393C15.306 2.361 14.593 4.266 13.314 5.664 12.008 7.084 10.3 7.764 8.194 7.764 6.088 7.764 4.326 7.111 2.9 5.746 1.453 4.407 .511 2.476 0 0M19.718-6.29 20.425-7.199C19.517-10.414 17.983-12.857 15.958-14.511 13.912-16.133 11.323-16.987 8.249-16.987 4.494-16.987 1.42-15.763-.969-13.342-3.384-10.926-4.582-7.824-4.582-4.07-4.582-.343-3.384 2.704-1.023 5.093 1.338 7.454 4.407 8.618 8.167 8.618 11.464 8.618 14.195 7.737 16.274 6.061 18.38 4.326 19.604 1.964 19.974-.969H-.141C-.169-1.453-.202-1.877-.229-2.334-.256-2.759-.256-3.27-.256-3.869-.256-7.454 .626-10.3 2.361-12.433 4.124-14.539 6.458-15.589 9.391-15.589 11.894-15.589 14.027-14.822 15.79-13.227 17.525-11.638 18.864-9.332 19.718-6.29" fill="#a7a9ac"/>
<path transform="matrix(1,0,0,-1,174.806,81.491397)" d="M0 0H6.344 12.971V-18.946-60.031C12.971-62.708 12.688-64.754 12.122-66.207 11.551-67.599 10.643-68.595 9.331-69.194 10.67-69.874 11.578-70.902 12.122-72.322 12.688-73.715 12.971-75.734 12.971-78.383V-90.642-101.056H6.344 0V-70.358-67.969ZM2.133-2.53V-67.969H5.833C7.879-67.969 9.217-67.398 9.902-66.348 10.583-65.325 10.898-63.105 10.898-59.748V-17.868-2.53H5.833ZM2.133-70.358V-98.641H5.833 10.898V-90.305-78.694C10.898-75.282 10.555-73.035 9.87-71.979 9.19-70.902 7.851-70.358 5.833-70.358Z" fill="#639143" fill-rule="evenodd"/>
<path transform="matrix(1,0,0,-1,174.806,81.491397)" d="M0 0H6.344 12.971V-18.946-60.031C12.971-62.708 12.688-64.754 12.122-66.207 11.551-67.599 10.643-68.595 9.331-69.194 10.67-69.874 11.578-70.902 12.122-72.322 12.688-73.715 12.971-75.734 12.971-78.383V-90.642-101.056H6.344 0V-70.358-67.969ZM2.133-2.53V-67.969H5.833C7.879-67.969 9.217-67.398 9.902-66.348 10.583-65.325 10.898-63.105 10.898-59.748V-17.868-2.53H5.833ZM2.133-70.358V-98.641H5.833 10.898V-90.305-78.694C10.898-75.282 10.555-73.035 9.87-71.979 9.19-70.902 7.851-70.358 5.833-70.358Z" fill="#145633"/>
<path transform="matrix(1,0,0,-1,209.536,68.572299)" d="M0 0V-103.249C0-107.286-.539-110.192-1.567-112.009-2.617-113.777-4.239-114.659-6.546-114.659-8.82-114.659-10.469-113.777-11.465-112.009-12.493-110.219-12.972-107.286-12.972-103.249V-97.443H-10.899V-103.445C-10.899-106.748-10.583-109.022-9.903-110.333-9.217-111.612-8.107-112.238-6.546-112.238-4.979-112.238-3.842-111.612-3.156-110.273-2.476-108.94-2.133-106.661-2.133-103.445V-81.196C-2.818-82.192-3.526-82.878-4.266-83.335-5.039-83.759-5.887-83.988-6.829-83.988-8.934-83.988-10.469-83.079-11.465-81.196-12.493-79.379-12.972-76.474-12.972-72.551V-34.17H-10.899V-72.779C-10.899-76.049-10.583-78.324-9.903-79.635-9.217-80.941-8.107-81.599-6.546-81.599-4.979-81.599-3.842-80.941-3.156-79.575-2.476-78.242-2.133-75.962-2.133-72.779V0Z" fill="#145633"/>
<path transform="matrix(1,0,0,-1,207.411,171.9827)" d="M0 0V20.143 22.531 121.259 129.964H12.971V121.259-10.556H10.898V20.143H2.133V0ZM2.133 121.455V22.531H10.898V121.455 126.634L2.133 126.694Z" fill="#145633" fill-rule="evenodd"/>
<path transform="matrix(1,0,0,-1,207.411,171.9827)" d="M0 0V20.143 22.531 121.259 129.964H12.971V121.259-10.556H10.898V20.143H2.133V0ZM2.133 121.455V22.531H10.898V121.455 126.634L2.133 126.694Z" fill="#145633"/>
<path transform="matrix(1,0,0,-1,218.3017,182.5404)" d="M0 0V123.593H1.991V121.4H4.184 12.971V112.923 0H10.838V113.152 117.727H3.928 2.078V0Z" fill="#145633"/>
<path transform="matrix(1,0,0,-1,185.6684,182.5404)" d="M0 0V30.698 33.087 72.235 80.973H12.971V72.235 22.335H10.898V30.698H2.133V0ZM2.133 72.436V33.087H11.127V72.436 77.643L2.133 77.671Z" fill="#639143" fill-rule="evenodd"/>
<path transform="matrix(1,0,0,-1,185.6684,182.5404)" d="M0 0V30.698 33.087 72.235 80.973H12.971V72.235 22.335H10.898V30.698H2.133V0ZM2.133 72.436V33.087H11.127V72.436 77.643L2.133 77.671Z" fill="#145633"/>
</g>
</g>
</svg>
