<?xml version="1.0" encoding="UTF-8"?>
<svg id="Layer_1" xmlns="http://www.w3.org/2000/svg" version="1.1" viewBox="0 0 417.63 192.5">
  <!-- Generator: Adobe Illustrator 30.0.0, SVG Export Plug-In . SVG Version: 2.1.1 Build 123)  -->
  <defs>
    <style>
      .st0 {
        fill: #b2292e;
      }
    </style>
  </defs>
  <g>
    <path d="M1.22,178.23h1.88v4.33h3.7v-4.33h1.9v10.75h-1.9v-4.79h-3.7v4.79h-1.88v-10.75Z"/>
    <path d="M13.97,186.76c0-1.87,1.59-2.78,5.56-3.09-.06-.96-.6-1.69-1.93-1.69-.9,0-1.72.42-2.29.9l-.69-1.24c.7-.6,1.95-1.17,3.34-1.17,2.22,0,3.44,1.29,3.44,3.57v4.95h-1.52l-.15-1.04h-.07c-.85.67-1.91,1.25-3.01,1.25-1.55,0-2.68-.99-2.68-2.43ZM19.53,186.66v-1.82c-2.89.21-3.74.85-3.74,1.77,0,.77.64,1.09,1.44,1.09s1.57-.39,2.3-1.04Z"/>
    <path d="M29.29,185.98v-7.33h-2.54v-1.48h4.4v8.92c0,1.12.62,1.56,1.44,1.56.41,0,.83-.1,1.39-.34l.44,1.38c-.79.28-1.36.49-2.29.49-1.87,0-2.85-1.17-2.85-3.21Z"/>
    <path d="M39.5,186.76c0-1.87,1.59-2.78,5.56-3.09-.07-.96-.61-1.69-1.93-1.69-.9,0-1.72.42-2.29.9l-.69-1.24c.71-.6,1.95-1.17,3.34-1.17,2.22,0,3.44,1.29,3.44,3.57v4.95h-1.52l-.15-1.04h-.06c-.85.67-1.91,1.25-3.01,1.25-1.55,0-2.68-.99-2.68-2.43ZM45.06,186.66v-1.82c-2.89.21-3.75.85-3.75,1.77,0,.77.64,1.09,1.44,1.09s1.57-.39,2.31-1.04Z"/>
    <path d="M54.14,188.04h-.05l-.16.93h-1.47v-11.8h1.87v2.95l-.05,1.48c.7-.7,1.62-1.14,2.49-1.14,2.08,0,3.29,1.66,3.29,4.22,0,2.85-1.7,4.51-3.57,4.51-.75,0-1.62-.42-2.34-1.14ZM58.12,184.71c0-1.68-.57-2.7-1.87-2.7-.62,0-1.26.33-1.93,1.04v3.79c.61.57,1.29.8,1.78.8,1.14,0,2.01-1.03,2.01-2.93Z"/>
    <path d="M64.67,191.95l.57-1.35c.61.29,1.19.42,1.73.42,1.37,0,1.75-.86,1.75-2.04v-6.84h-3.47v-1.48h5.35v8.21c0,2.05-.8,3.63-3.55,3.63-.92,0-1.72-.23-2.39-.55ZM68.15,177.75c0-.83.6-1.4,1.39-1.4s1.39.57,1.39,1.4-.59,1.37-1.39,1.37-1.39-.54-1.39-1.37Z"/>
    <path d="M77.79,186.76c0-1.87,1.59-2.78,5.56-3.09-.06-.96-.6-1.69-1.93-1.69-.9,0-1.72.42-2.29.9l-.69-1.24c.7-.6,1.95-1.17,3.34-1.17,2.22,0,3.44,1.29,3.44,3.57v4.95h-1.52l-.15-1.04h-.07c-.85.67-1.91,1.25-3.01,1.25-1.55,0-2.68-.99-2.68-2.43ZM83.35,186.66v-1.82c-2.89.21-3.74.85-3.74,1.77,0,.77.64,1.09,1.44,1.09s1.57-.39,2.3-1.04Z"/>
    <path d="M102.96,183.63c0-3.53,2.06-5.6,4.84-5.6,1.42,0,2.39.67,3.04,1.33l-1.05,1.17c-.49-.52-1.06-.88-2-.88-1.7,0-2.89,1.48-2.89,3.91s1.03,3.97,2.93,3.97c.57,0,1.13-.18,1.46-.49v-2.34h-1.85v-1.55h3.55v4.74c-.7.68-1.9,1.27-3.27,1.27-2.71,0-4.76-1.99-4.76-5.54Z"/>
    <path d="M117.06,180.67h1.54l.16,1.9h.05c.82-1.35,2.03-2.12,3.42-2.12.65,0,1.08.11,1.57.34l-.41,1.58c-.52-.18-.83-.26-1.46-.26-1.1,0-2.18.6-2.99,2.21v4.64h-1.88v-8.3Z"/>
    <path d="M128.57,184.82c0-2.77,1.91-4.36,4.02-4.36s4.04,1.6,4.04,4.36-1.91,4.36-4.04,4.36-4.02-1.6-4.02-4.36ZM134.7,184.82c0-1.69-.79-2.83-2.11-2.83s-2.09,1.14-2.09,2.83.79,2.83,2.09,2.83,2.11-1.12,2.11-2.83Z"/>
    <path d="M141.59,185.81v-5.14h1.88v4.9c0,1.37.39,2,1.5,2,.75,0,1.31-.36,2.03-1.29v-5.62h1.86v8.3h-1.52l-.15-1.33h-.06c-.77.91-1.65,1.55-2.85,1.55-1.88,0-2.7-1.22-2.7-3.37Z"/>
    <path d="M154.57,180.67h1.54l.15.96h.05c.69-.67,1.65-1.17,2.58-1.17,2.08,0,3.27,1.66,3.27,4.23,0,2.83-1.7,4.49-3.56,4.49-.74,0-1.55-.37-2.21-1.01l.05,1.48v2.65h-1.87v-11.64ZM160.23,184.71c0-1.68-.57-2.7-1.87-2.7-.62,0-1.26.33-1.93,1.04v3.79c.61.57,1.29.8,1.77.8,1.16,0,2.03-1.03,2.03-2.93Z"/>
    <path d="M180.28,178.23h3.14c2.19,0,3.79.67,3.79,2.64,0,1.01-.61,2-1.87,2.34v.07c1.55.26,2.4,1.07,2.4,2.54,0,2.15-1.72,3.16-4.06,3.16h-3.42v-10.75ZM183.24,182.69c1.5,0,2.13-.59,2.13-1.6s-.69-1.4-2.08-1.4h-1.13v3h1.08ZM183.5,187.51c1.57,0,2.4-.59,2.4-1.81,0-1.16-.8-1.66-2.4-1.66h-1.34v3.47h1.34Z"/>
    <path d="M193.65,180.67h1.54l.16,1.9h.05c.82-1.35,2.03-2.12,3.42-2.12.65,0,1.08.11,1.57.34l-.41,1.58c-.52-.18-.84-.26-1.46-.26-1.1,0-2.18.6-2.99,2.21v4.64h-1.88v-8.3Z"/>
    <path d="M205.59,187.44h2.93v-5.29h-2.93v-1.48h4.81v6.77h2.93v1.53h-7.74v-1.53ZM207.93,177.88c0-.83.61-1.4,1.39-1.4s1.39.57,1.39,1.4-.59,1.37-1.39,1.37-1.39-.54-1.39-1.37Z"/>
    <path d="M218.24,184.82c0-2.77,2.11-4.36,4.56-4.36,1.28,0,2.29.52,2.96,1.19l-.88,1.17c-.64-.55-1.28-.83-1.99-.83-1.6,0-2.72,1.14-2.72,2.83s1.08,2.83,2.67,2.83c.92,0,1.69-.42,2.31-.93l.79,1.19c-.93.81-2.11,1.27-3.25,1.27-2.52,0-4.43-1.6-4.43-4.36Z"/>
    <path d="M231.29,177.17h1.88v7.42h.07l3.63-3.92h2.08l-3.12,3.34,3.47,4.97h-2.06l-2.52-3.83-1.54,1.64v2.18h-1.88v-11.8Z"/>
    <path d="M257.32,178.23h6.79v1.58h-4.91v3.08h4.17v1.58h-4.17v4.51h-1.88v-10.75Z"/>
    <path d="M269.25,186.76c0-1.87,1.59-2.78,5.56-3.09-.06-.96-.6-1.69-1.93-1.69-.9,0-1.72.42-2.29.9l-.69-1.24c.7-.6,1.95-1.17,3.34-1.17,2.22,0,3.44,1.29,3.44,3.57v4.95h-1.52l-.15-1.04h-.07c-.85.67-1.91,1.25-3.01,1.25-1.55,0-2.68-.99-2.68-2.43ZM274.81,186.66v-1.82c-2.89.21-3.74.85-3.74,1.77,0,.77.64,1.09,1.44,1.09s1.57-.39,2.3-1.04Z"/>
    <path d="M282.06,184.82c0-2.77,2.11-4.36,4.56-4.36,1.28,0,2.29.52,2.96,1.19l-.88,1.17c-.64-.55-1.28-.83-1.99-.83-1.6,0-2.72,1.14-2.72,2.83s1.08,2.83,2.67,2.83c.92,0,1.69-.42,2.31-.93l.79,1.19c-.93.81-2.11,1.27-3.25,1.27-2.52,0-4.43-1.6-4.43-4.36Z"/>
    <path d="M296.72,185.65v-3.5h-2.14v-1.48h2.22v-2.44l1.8-.9v3.34h3.66v1.48h-3.66v3.5c0,1.38.49,2.04,1.85,2.04.69,0,1.26-.15,1.77-.34l.36,1.35c-.72.24-1.62.49-2.57.49-2.45,0-3.29-1.43-3.29-3.53Z"/>
    <path d="M307.26,184.82c0-2.77,1.91-4.36,4.02-4.36s4.04,1.6,4.04,4.36-1.91,4.36-4.04,4.36-4.02-1.6-4.02-4.36ZM313.4,184.82c0-1.69-.79-2.83-2.11-2.83s-2.09,1.14-2.09,2.83.79,2.83,2.09,2.83,2.11-1.12,2.11-2.83Z"/>
    <path d="M321.29,180.67h1.54l.16,1.9h.05c.82-1.35,2.03-2.12,3.42-2.12.65,0,1.08.11,1.57.34l-.41,1.58c-.52-.18-.83-.26-1.46-.26-1.1,0-2.18.6-2.99,2.21v4.64h-1.88v-8.3Z"/>
    <path d="M333,192.34l.36-1.43c.21.06.44.1.67.1,1.03,0,1.6-.73,1.9-1.48l.24-.64-3.62-8.22h1.88l1.65,4.15c.29.75.61,1.61.9,2.44h.06c.25-.8.52-1.66.79-2.44l1.47-4.15h1.77l-3.35,8.84c-.69,1.84-1.65,3-3.58,3-.43,0-.83-.07-1.15-.16Z"/>
    <path d="M358.43,183.63c0-3.52,2.11-5.6,4.94-5.6,1.33,0,2.37.63,3.04,1.33l-1.05,1.17c-.54-.54-1.16-.88-2-.88-1.78,0-3.01,1.48-3.01,3.91s1.23,3.97,3.06,3.97c.87,0,1.54-.41,2.14-1.07l1.06,1.14c-.87,1.01-1.96,1.56-3.32,1.56-2.73,0-4.88-1.99-4.88-5.54Z"/>
    <path d="M371.56,177.17h1.87v2.95l-.1,1.81c.75-.8,1.65-1.47,2.88-1.47,1.85,0,2.7,1.22,2.7,3.37v5.15h-1.88v-4.9c0-1.37-.41-2.02-1.5-2.02-.8,0-1.34.42-2.09,1.24v5.68h-1.87v-11.8Z"/>
    <path d="M384.12,186.76c0-1.87,1.59-2.78,5.56-3.09-.07-.96-.61-1.69-1.93-1.69-.9,0-1.72.42-2.29.9l-.69-1.24c.71-.6,1.95-1.17,3.34-1.17,2.22,0,3.44,1.29,3.44,3.57v4.95h-1.52l-.15-1.04h-.06c-.85.67-1.91,1.25-3.01,1.25-1.55,0-2.68-.99-2.68-2.43ZM389.69,186.66v-1.82c-2.89.21-3.75.85-3.75,1.77,0,.77.64,1.09,1.44,1.09s1.57-.39,2.31-1.04Z"/>
    <path d="M397.05,187.44h2.93v-5.29h-2.93v-1.48h4.81v6.77h2.93v1.53h-7.74v-1.53ZM399.39,177.88c0-.83.61-1.4,1.39-1.4s1.39.57,1.39,1.4-.59,1.37-1.39,1.37-1.39-.54-1.39-1.37Z"/>
    <path d="M409.85,180.67h1.54l.15,1.29h.07c.77-.83,1.67-1.5,2.89-1.5,1.85,0,2.7,1.22,2.7,3.37v5.15h-1.88v-4.9c0-1.37-.41-2.02-1.51-2.02-.8,0-1.34.42-2.09,1.24v5.68h-1.87v-8.3Z"/>
  </g>
  <g>
    <path d="M16.03,106.09v61.64H0v-61.64h16.03Z"/>
    <path d="M56.42,124.75h-14.89v-4.57c0-2.13-.19-3.49-.57-4.07-.38-.58-1.02-.88-1.9-.88-.96,0-1.69.39-2.19,1.18-.49.79-.74,1.98-.74,3.58,0,2.06.28,3.61.83,4.65.53,1.04,2.04,2.3,4.53,3.77,7.13,4.23,11.63,7.71,13.48,10.43,1.85,2.72,2.78,7.09,2.78,13.14,0,4.39-.51,7.63-1.54,9.71-1.03,2.08-3.02,3.83-5.96,5.24-2.95,1.41-6.37,2.11-10.28,2.11-4.29,0-7.95-.81-10.98-2.44s-5.02-3.69-5.96-6.21c-.94-2.51-1.41-6.08-1.41-10.7v-4.04h14.89v7.5c0,2.31.21,3.79.63,4.45.42.66,1.16.99,2.23.99s1.86-.42,2.38-1.26c.52-.84.78-2.08.78-3.73,0-3.63-.49-6-1.48-7.12-1.02-1.12-3.52-2.98-7.5-5.6-3.99-2.64-6.62-4.56-7.92-5.75-1.29-1.19-2.37-2.84-3.22-4.95-.85-2.11-1.28-4.8-1.28-8.07,0-4.72.6-8.17,1.81-10.36,1.21-2.18,3.15-3.89,5.84-5.12,2.69-1.23,5.94-1.85,9.75-1.85,4.16,0,7.71.67,10.64,2.02,2.93,1.35,4.88,3.04,5.83,5.08.95,2.04,1.43,5.51,1.43,10.41v2.44Z"/>
    <path d="M99.63,106.09v61.64h-16.03v-25.89h-4.8v25.89h-16.03v-61.64h16.03v22.04h4.8v-22.04h16.03Z"/>
    <path d="M138.36,106.09v12.34h-9.52v49.3h-16.03v-49.3h-9.48v-12.34h35.03Z"/>
    <path d="M166.6,106.09l9.17,61.64h-16.38l-.86-11.08h-5.73l-.96,11.08h-16.57l8.18-61.64h23.17ZM158.1,145.73c-.81-6.98-1.62-15.61-2.44-25.89-1.63,11.8-2.66,20.43-3.08,25.89h5.52Z"/>
    <path d="M178.48,106.09h11.35c7.56,0,12.68.29,15.36.88,2.68.58,4.86,2.07,6.55,4.47,1.69,2.4,2.53,6.23,2.53,11.48,0,4.8-.6,8.02-1.79,9.67s-3.54,2.64-7.04,2.97c3.17.79,5.3,1.84,6.4,3.16,1.09,1.32,1.77,2.53,2.04,3.64.27,1.1.4,4.14.4,9.12v16.26h-14.89v-20.48c0-3.3-.26-5.34-.78-6.13s-1.88-1.18-4.09-1.18v27.79h-16.03v-61.64ZM194.51,116.64v13.71c1.8,0,3.06-.25,3.79-.74.72-.5,1.09-2.1,1.09-4.82v-3.39c0-1.95-.35-3.24-1.05-3.85-.7-.61-1.97-.91-3.83-.91Z"/>
    <path d="M227.86,106.09h15.99c5.05,0,8.88.39,11.48,1.18,2.6.79,4.7,2.38,6.3,4.77,1.6,2.4,2.4,6.26,2.4,11.59,0,3.6-.56,6.11-1.69,7.53-1.13,1.42-3.36,2.51-6.68,3.27,3.71.84,6.22,2.23,7.54,4.17s1.98,4.92,1.98,8.93v5.71c0,4.17-.48,7.25-1.43,9.26-.95,2.01-2.47,3.38-4.55,4.11-2.08.74-6.35,1.1-12.79,1.1h-18.54v-61.64ZM243.89,116.64v13.71c.69-.03,1.22-.04,1.6-.04,1.57,0,2.58-.39,3.01-1.16.43-.77.65-2.99.65-6.64,0-1.93-.18-3.28-.53-4.05-.36-.77-.82-1.26-1.39-1.47-.57-.2-1.68-.32-3.33-.34ZM243.89,139.94v17.25c2.26-.08,3.7-.43,4.32-1.07.62-.63.93-2.2.93-4.68v-5.75c0-2.64-.28-4.24-.84-4.8-.56-.56-2.03-.88-4.42-.95Z"/>
    <path d="M270.92,106.09h11.35c7.56,0,12.68.29,15.36.88,2.68.58,4.86,2.07,6.55,4.47,1.69,2.4,2.53,6.23,2.53,11.48,0,4.8-.6,8.02-1.79,9.67s-3.54,2.64-7.04,2.97c3.17.79,5.3,1.84,6.4,3.16,1.09,1.32,1.77,2.53,2.04,3.64.27,1.1.4,4.14.4,9.12v16.26h-14.89v-20.48c0-3.3-.26-5.34-.78-6.13s-1.88-1.18-4.09-1.18v27.79h-16.03v-61.64ZM286.95,116.64v13.71c1.8,0,3.06-.25,3.79-.74.72-.5,1.09-2.1,1.09-4.82v-3.39c0-1.95-.35-3.24-1.05-3.85-.7-.61-1.97-.91-3.83-.91Z"/>
    <path d="M328.94,106.09v61.64h-16.03v-61.64h16.03Z"/>
    <path d="M372.8,132.93h-16.03v-10.71c0-3.11-.17-5.06-.51-5.83-.34-.77-1.1-1.16-2.27-1.16-1.32,0-2.16.47-2.51,1.41s-.53,2.97-.53,6.09v28.63c0,3,.18,4.95.53,5.86.36.91,1.15,1.37,2.4,1.37s1.97-.46,2.34-1.37c.37-.92.55-3.07.55-6.45v-7.75h16.03v2.4c0,6.38-.45,10.9-1.35,13.57-.9,2.67-2.89,5.01-5.98,7.02-3.08,2.01-6.88,3.01-11.4,3.01s-8.57-.85-11.61-2.55c-3.04-1.7-5.06-4.05-6.05-7.06s-1.48-7.53-1.48-13.57v-18.01c0-4.44.15-7.77.46-9.99.3-2.22,1.21-4.36,2.72-6.42,1.51-2.06,3.61-3.67,6.28-4.85s5.75-1.77,9.23-1.77c4.72,0,8.62.91,11.69,2.74s5.09,4.1,6.05,6.83c.96,2.72,1.45,6.96,1.45,12.72v5.86Z"/>
    <path d="M416.75,106.09l-9.2,27.83,10.07,33.81h-16.56l-6.49-26.42v26.42h-16.03v-61.64h16.03v23.95l7.14-23.95h15.04Z"/>
  </g>
  <g>
    <rect class="st0" x="122.7" y="42.52" width="83.37" height="39.09"/>
    <rect class="st0" x="167.65" width="82.11" height="37.1"/>
    <rect class="st0" x="211.4" y="42.52" width="83.53" height="39.15"/>
  </g>
</svg>